<?xml version="1.0" encoding="utf-8"?>
<!-- Generator: Adobe Illustrator 22.1.0, SVG Export Plug-In . SVG Version: 6.00 Build 0)  -->
<svg version="1.1" id="레이어_1" xmlns="http://www.w3.org/2000/svg" xmlns:xlink="http://www.w3.org/1999/xlink" x="0px"
	 y="0px" viewBox="0 0 64 64" style="enable-background:new 0 0 64 64;" xml:space="preserve">
<style type="text/css">
	.st0{fill:#FFE35C;}
	.st1{fill:#B06E54;}
</style>
<path class="st0" d="M55.2,54.5v5.7c0,1.4-1.1,2.5-2.5,2.5h-40c-1.4,0-2.5-1.1-2.5-2.5v-5.7c0-1.4,1.1-2.5,2.5-2.5h40
	C54.1,52,55.2,53.1,55.2,54.5z"/>
<g>
	<path class="st1" d="M50.2,49.5V52h-35v-2.5c0-2.8,2.2-5,5-5h25C48,44.5,50.2,46.7,50.2,49.5z"/>
	<path class="st1" d="M42.7,11.2c0,1.2-0.2,2.4-0.6,3.5c-2.5,6.6-4.4,13.4-4.4,20.4v1.1h-10c-0.1-7.5-2-14.7-4.5-21.8
		c-0.6-1.7-0.7-3.7-0.2-5.7c0.9-3.5,3.7-6.4,7.3-7.2C36.9,0,42.7,5,42.7,11.2z"/>
	<path class="st1" d="M37.7,36.2v8.2h-10V37c0-0.3,0-0.5,0-0.8H37.7z"/>
</g>
<path d="M37.1,10c0.7,0,1.2-0.6,1.2-1.2c0-0.7-0.6-1.2-1.2-1.2c-0.7,0-1.3,0.6-1.3,1.2C35.8,9.4,36.4,10,37.1,10z"/>
<path d="M20.2,43.2c-3.4,0-6.2,2.8-6.2,6.2v1.2h-1.2c-2.1,0-3.7,1.7-3.7,3.8v5.7c0,2.1,1.7,3.7,3.7,3.7h40c2.1,0,3.7-1.7,3.7-3.7
	v-5.7c0-2.1-1.7-3.8-3.7-3.8h-1.2v-1.2c0-3.4-2.8-6.2-6.2-6.2H39v-8.1c0-5.9,1.4-12.3,4.3-20c0.5-1.3,0.7-2.6,0.7-3.9
	c0-7.2-6.7-12.6-13.9-10.9c-4,0.9-7.2,4.1-8.2,8.1c-0.5,2.2-0.4,4.4,0.2,6.4c2,5.8,4.3,13.5,4.4,21.4c0,0.3,0,0.5,0,0.8v6.2H20.2z
	 M54,54.5v5.7c0,0.7-0.6,1.2-1.2,1.2h-40c-0.7,0-1.2-0.6-1.2-1.2v-5.7c0-0.7,0.6-1.2,1.2-1.2h40C53.4,53.3,54,53.8,54,54.5z
	 M49,49.5v1.2H16.5v-1.2c0-2.1,1.7-3.8,3.7-3.8h25C47.3,45.7,49,47.4,49,49.5z M24.5,14c-0.5-1.6-0.6-3.3-0.2-5
	c0.8-3.1,3.3-5.6,6.4-6.3c5.7-1.3,10.9,2.9,10.9,8.5c0,1-0.2,2.1-0.6,3c-3,7.9-4.4,14.5-4.4,20.7h-7.5C28.6,27.1,26.4,19.7,24.5,14z
	 M29,37.5h7.5v5.7H29V37.5z"/>
<path d="M34.4,22.5c0.7,0.2,1.4-0.2,1.5-0.9c0.6-2.3,1.4-4.8,2.4-7.4c0.2-0.6-0.1-1.4-0.7-1.6s-1.4,0.1-1.6,0.7
	c-1,2.7-1.8,5.2-2.5,7.6C33.3,21.6,33.7,22.3,34.4,22.5z"/>
</svg>
