<svg height="512pt" viewBox="-3 0 512 512.00002" width="512pt" xmlns="http://www.w3.org/2000/svg"><path d="m30.417969 512-30.417969-10.257812c1.460938-4.351563 1.621094-9.277344 1.78125-15.007813.371094-12.539063.898438-29.746094 17.417969-46.25 7.433593-7.464844 15.617187-12.359375 24.976562-14.960937 11.6875-3.257813 20.949219-8.265626 27.5625-14.878907l7.046875-7.046875 22.699219 22.695313-7.046875 7.050781c-10.5625 10.5625-24.578125 18.347656-41.640625 23.082031-3.996094 1.109375-7.351563 3.195313-10.882813 6.726563-7.527343 7.527344-7.722656 13.933594-8.042968 24.527344-.191406 7.273437-.449219 15.476562-3.453125 24.320312zm0 0" fill="#77959e"/><path d="m317.175781 165.230469 96.3125-96.3125 22.699219 22.703125-96.3125 96.3125zm0 0" fill="#ed4fd7"/><path d="m445.589844 36.816406 32.101562-32.101562 22.703125 22.703125-32.101562 32.097656zm0 0" fill="#ed4fd7"/><path d="m291.726562 139.769531-22.699218-22.699219 23.277344-23.273437c18.332031-18.332031 21.1875-47.277344 6.820312-68.835937l26.710938-17.800782c22.84375 34.238282 18.285156 80.230469-10.835938 109.351563zm0 0" fill="#ffcb5a"/><path d="m388.042969 236.085938-22.699219-22.699219 23.277344-23.273438c29.085937-29.105469 75.09375-33.679687 109.347656-10.835937l-17.800781 26.710937c-21.574219-14.398437-50.519531-11.511719-68.835938 6.820313zm0 0" fill="#00ddc2"/><path d="m440.902344 256.84375h32.105468v32.105469h-32.105468zm0 0" fill="#ffcb5a"/><path d="m376.691406 0h32.105469v32.105469h-32.105469zm0 0" fill="#00ddc2"/><path d="m473.007812 96.316406h32.105469v32.105469h-32.105469zm0 0" fill="#ffcb5a"/><path d="m216.164062 32.105469h32.105469v32.105469h-32.105469zm0 0" fill="#ed4fd7"/><path d="m101.5 426.3125-22.699219-22.699219-7.046875 7.046875c-6.613281 6.613282-15.875 11.621094-27.5625 14.878906-2.902344.804688-5.648437 1.910157-8.328125 3.164063l25.023438 25.027344c13.390625-4.800781 24.753906-11.542969 33.566406-20.371094zm0 0" fill="#62808c"/><path d="m33.480469 380.933594 226.980469-226.984375 90.695312 90.695312-226.984375 226.980469zm0 0" fill="#fff"/><g fill="#e76e54"><path d="m45.203125 369.210938h181.394531l-102.414062 102.417968-90.699219-90.699218zm0 0"/><path d="m306.863281 288.949219-48.160156 48.15625h-181.394531l48.160156-48.15625zm0 0"/><path d="m351.167969 244.644531-12.199219 12.199219h-181.394531l102.894531-102.898438zm0 0"/></g><path d="m63.34375 369.210938 60.839844 60.839843 60.839844-60.839843h41.574218l-102.414062 102.417968-90.699219-90.699218 11.71875-11.71875zm0 0" fill="#dd523c"/><path d="m265.445312 288.949219h41.417969l-48.160156 48.15625h-41.574219zm0 0" fill="#dd523c"/><path d="m351.167969 244.644531-12.199219 12.199219h-41.417969l32.910157-32.910156zm0 0" fill="#dd523c"/><path d="m306.863281 288.949219 32.105469-32.105469zm0 0" fill="#c6c5ca"/><path d="m297.390625 256.84375-32.105469 32.105469h41.578125l32.105469-32.105469zm0 0" fill="#efefef"/><path d="m226.597656 369.210938 32.105469-32.105469zm0 0" fill="#c6c5ca"/><path d="m217.128906 337.105469-32.105468 32.105469h41.574218l32.105469-32.105469zm0 0" fill="#efefef"/><path d="m54.273438 360.140625-9.070313 9.070313h18.140625zm0 0" fill="#efefef"/><path d="m264.320312 185.984375 22.703126 22.699219-22.703126 22.703125-22.699218-22.703125zm0 0" fill="#fff"/></svg>