<?xml version="1.0" encoding="utf-8"?>
<!-- Generator: Adobe Illustrator 22.1.0, SVG Export Plug-In . SVG Version: 6.00 Build 0)  -->
<svg version="1.1" id="Capa_1" xmlns="http://www.w3.org/2000/svg" xmlns:xlink="http://www.w3.org/1999/xlink" x="0px" y="0px"
	 viewBox="0 0 35 50" style="enable-background:new 0 0 35 50;" xml:space="preserve">
<style type="text/css">
	.st0{fill:#FF4444;}
</style>
<g>
	<path class="st0" d="M3.9,29.5c-5.1-6.9-4.4-18.1,1.6-24.1c3.2-3.2,7.5-5,12-5s8.8,1.8,12,5c6,6,6.7,17.2,1.6,24L17.5,49.1
		L3.9,29.5z M17.6,11c-3.5,0-6.3,2.8-6.3,6.3c0,3.5,2.8,6.3,6.3,6.3s6.3-2.8,6.3-6.3C23.9,13.9,21.1,11,17.6,11z"/>
	<path d="M17.5,1c4.4,0,8.5,1.7,11.7,4.8c5.8,5.8,6.5,16.7,1.5,23.4l-13.2,19l-13.2-19c-5-6.7-4.3-17.6,1.5-23.4
		C8.9,2.7,13.1,1,17.5,1 M17.6,24.1c3.7,0,6.8-3,6.8-6.8c0-3.7-3-6.8-6.8-6.8c-3.7,0-6.8,3-6.8,6.8C10.9,21,13.9,24.1,17.6,24.1
		 M17.5,0C13,0,8.5,1.7,5.1,5.1C-1,11.3-1.7,22.8,3.5,29.8l14,20.2l14-20.2c5.2-7,4.5-18.5-1.6-24.7C26.4,1.7,22,0,17.5,0L17.5,0z
		 M17.6,23.1c-3.2,0-5.8-2.6-5.8-5.8c0-3.2,2.6-5.8,5.8-5.8s5.8,2.6,5.8,5.8S20.8,23.1,17.6,23.1L17.6,23.1z"/>
</g>
</svg>
